<svg xmlns="http://www.w3.org/2000/svg" xmlns:xlink="http://www.w3.org/1999/xlink" version="1.1" x="0px" y="0px" viewBox="0 0 100 125" enable-background="new 0 0 150 150" xml:space="preserve"><path fill="#000000" d="M35,16h30c13.255,0,24,10.745,24,24v4c0,4.418-3.582,8-8,8h-8c-1.105,0-2-0.895-2-2V36c0-3.314-2.686-6-6-6  H35c-3.314,0-6,2.686-6,6v14c0,1.105-0.895,2-2,2h-8c-4.418,0-8-3.582-8-8v-4C11,26.745,21.745,16,35,16z"/><path fill="#000000" d="M65.146,52.146C65.053,52.053,65,51.93,65,51.797C65,49.976,65,36.76,65,37c0-0.552-0.448-1-1-1h-6  c-0.552,0-1,0.448-1,1v6.5c0,0.276-0.224,0.5-0.5,0.5h-13c-0.276,0-0.5-0.224-0.5-0.5V37c0-0.552-0.448-1-1-1h-6  c-0.552,0-1,0.448-1,1v15h0L21.343,65.657c-1.5,1.5-2.343,3.535-2.343,5.657V91.5c0,0.276,0.224,0.5,0.5,0.5h15  c0.276,0,0.5-0.224,0.5-0.5V90c0-2.209,1.791-4,4-4h22c2.209,0,4,1.791,4,4v1.5c0,0.276,0.224,0.5,0.5,0.5h15  c0.276,0,0.5-0.224,0.5-0.5V71.314c0-2.122-0.843-4.157-2.343-5.657L65.146,52.146z M50,80c-7.732,0-14-6.268-14-14s6.268-14,14-14  s14,6.268,14,14S57.732,80,50,80z"/><text x="0" y="115" fill="#000000" font-size="5px" font-weight="bold" font-family="'Helvetica Neue', Helvetica, Arial-Unicode, Arial, Sans-serif">Created by Ayub Irawan</text><text x="0" y="120" fill="#000000" font-size="5px" font-weight="bold" font-family="'Helvetica Neue', Helvetica, Arial-Unicode, Arial, Sans-serif">from the Noun Project</text></svg>